<?xml version="1.0" encoding="utf-8"?>
<!-- Generator: Adobe Illustrator 18.1.1, SVG Export Plug-In . SVG Version: 6.00 Build 0)  -->
<svg version="1.1" id="Layer_1" xmlns="http://www.w3.org/2000/svg" xmlns:xlink="http://www.w3.org/1999/xlink" x="0px" y="0px"
	 viewBox="0 0 74.5 29.5" enable-background="new 0 0 74.5 29.5" xml:space="preserve">
<path d="M46.6,21.4l-0.7,0.1v7.3c0.3,0,0.5,0.1,0.8,0.1c1.4,0,1.9-0.8,2.4-2.2l0.3,0.1L49,29.4c-0.6-0.2-0.6-0.2-1.2-0.2h-3.5v-0.4
	l0.6-0.1v-7.3l-0.6-0.1V21h2.3V21.4z"/>
<path d="M50.9,28.8l0.5,0.1v0.4h-1.8v-0.4l0.5-0.1v-4.1c0-0.3-0.1-0.4-0.3-0.4c-0.1,0-0.2,0-0.2,0v-0.4l1.3-0.5V28.8z M50.5,22.2
	c-0.3,0-0.6-0.3-0.6-0.6s0.3-0.7,0.6-0.7c0.3,0,0.5,0.3,0.5,0.7C51,21.9,50.8,22.2,50.5,22.2z"/>
<path d="M53.1,24.3c0.3-0.5,0.9-0.9,1.4-0.9c1.2,0,1.5,1,1.5,2.2v3.1l0.5,0.1v0.4h-1.8v-0.4l0.5-0.1v-3.1c0-1.1-0.3-1.6-0.9-1.6
	c-0.5,0-0.9,0.3-1.2,0.8v3.9l0.5,0.1v0.4h-1.8v-0.4l0.5-0.1v-3.5c0-0.8-0.1-1-0.4-1c0,0-0.1,0-0.1,0v-0.4l1-0.5
	C52.9,23.7,53,24,53.1,24.3z"/>
<path d="M58.7,29.5c-1.2,0-2.1-1.1-2.1-2.7c0-1.8,1-3.2,2.3-3.2c0.8,0,1.4,0.4,1.4,1c0,0.4-0.2,0.6-0.5,0.6c-0.3,0-0.5-0.3-0.6-0.7
	C59.1,24,59.1,24,58.7,24c-0.7,0-1.3,1-1.3,2.2c0,1.4,0.7,2.5,1.7,2.5c0.5,0,0.8-0.2,1.2-0.9l0.3,0.2C60.1,29,59.4,29.5,58.7,29.5z"
	/>
<path d="M64,26.4c0,1.7-0.4,2.6-1.2,2.6c-0.9,0-1.3-0.8-1.3-2.6c0-1.5,0.5-2.5,1.3-2.5C63.6,23.9,64,24.9,64,26.4z M65,26.5
	c0-1.7-0.9-3-2.1-3c-1.2,0-2.3,1.3-2.3,3c0,1.7,1,3,2.2,3C63.9,29.5,65,28.1,65,26.5z"/>
<path d="M66.3,28.8l0.5,0.1v0.4H65v-0.4l0.5-0.1v-6.6c0-0.6-0.1-0.7-0.3-0.7c-0.1,0-0.1,0-0.2,0V21l1.3-0.6V28.8z"/>
<path d="M68.5,24.3c0.3-0.5,0.9-0.9,1.4-0.9c1.2,0,1.5,1,1.5,2.2v3.1l0.5,0.1v0.4h-1.8v-0.4l0.5-0.1v-3.1c0-1.1-0.3-1.6-0.9-1.6
	c-0.5,0-0.9,0.3-1.2,0.8v3.9l0.5,0.1v0.4h-1.9v-0.4l0.5-0.1v-3.5c0-0.8-0.1-1-0.4-1c0,0-0.1,0-0.1,0v-0.4l1-0.5
	C68.4,23.7,68.5,24,68.5,24.3z"/>
<path d="M28.1,1.6v2.3c0,0.6,0,0.7,0.1,0.9c0.1,0.2,0.4,0.4,0.7,0.4c0.3,0,0.6-0.2,0.7-0.5c0.1-0.2,0.1-0.3,0.1-0.8V1.6h0.4v2.3
	c0,0.6,0,0.8-0.2,1.1c-0.2,0.4-0.6,0.6-1.1,0.6c-0.6,0-0.9-0.2-1.1-0.7c-0.1-0.2-0.1-0.4-0.1-1V1.6H28.1z"/>
<polygon points="33.5,5.4 33,5.4 31.2,2.3 31.2,5.4 30.8,5.4 30.8,1.6 31.2,1.6 33,4.7 33,1.6 33.5,1.6 "/>
<rect x="34.3" y="1.6" width="0.4" height="3.9"/>
<polygon points="36.6,4.7 37.8,1.6 38.1,1.6 36.7,5.4 36.5,5.4 35.2,1.6 35.7,1.6 "/>
<polygon points="40.3,3.3 40.3,3.6 39.1,3.6 39.1,5.1 40.5,5.1 40.5,5.4 38.7,5.4 38.7,1.6 40.3,1.6 40.3,1.9 39.1,1.9 39.1,3.3 "/>
<path d="M41.5,3.3V1.9H42c0.3,0,0.5,0.2,0.5,0.6c0,0.3-0.1,0.5-0.2,0.6c-0.1,0.1-0.2,0.1-0.4,0.1H41.5z M41.1,5.4h0.4V3.7h0.4
	l0.9,1.8h0.5l-1-1.8c0.2-0.1,0.3-0.1,0.4-0.3c0.2-0.2,0.3-0.5,0.3-0.8c0-0.4-0.1-0.7-0.4-0.9c-0.1-0.1-0.3-0.1-0.7-0.1h-0.8V5.4z"/>
<path d="M45.1,2.3c-0.1-0.3-0.3-0.5-0.5-0.5c-0.3,0-0.5,0.3-0.5,0.6c0,0.3,0.1,0.5,0.5,0.8c0.3,0.2,0.4,0.3,0.6,0.5
	c0.1,0.2,0.2,0.4,0.2,0.7c0,0.7-0.4,1.1-1,1.1c-0.4,0-0.7-0.2-0.9-0.6l0.3-0.4c0.1,0.4,0.3,0.6,0.6,0.6c0.3,0,0.6-0.3,0.6-0.7
	c0-0.2-0.1-0.4-0.2-0.5c-0.1-0.1-0.1-0.1-0.4-0.3c-0.6-0.4-0.7-0.7-0.7-1.1c0-0.6,0.4-1,0.9-1c0.4,0,0.6,0.2,0.8,0.5L45.1,2.3z"/>
<rect x="46.1" y="1.6" width="0.4" height="3.9"/>
<polygon points="48.6,5.4 48.2,5.4 48.2,1.9 47.2,1.9 47.2,1.6 49.5,1.6 49.5,1.9 48.6,1.9 "/>
<polygon points="52.5,1.6 51.5,3.7 51.5,5.4 51,5.4 51,3.7 50,1.6 50.4,1.6 51.3,3.2 52.1,1.6 "/>
<path d="M60,1.8c0.7,0,1.1,0.6,1.1,1.7c0,1-0.4,1.7-1.1,1.7c-0.7,0-1.1-0.6-1.1-1.7C58.9,2.5,59.3,1.8,60,1.8z M60,1.5
	c-1,0-1.5,0.8-1.5,2c0,0.7,0.1,1.2,0.5,1.6c0.3,0.3,0.6,0.5,1.1,0.5c0.4,0,0.8-0.2,1.1-0.5c0.3-0.4,0.5-0.9,0.5-1.6
	C61.5,2.2,60.9,1.5,60,1.5z"/>
<polygon points="63.7,3.3 63.7,3.7 62.7,3.7 62.7,5.4 62.3,5.4 62.3,1.6 63.9,1.6 63.9,1.9 62.7,1.9 62.7,3.3 "/>
<path fill="#DD0000" d="M10.6,1.2v0.5l0.3,0.1c1.4,0.3,1.6,0.3,1.6,2c0,0,0,9.2,0,10C12.1,13.1,5,1.2,5,1.2H1.2v0.5l0.4,0
	c1.5,0.1,1.6,0.1,1.6,1.8V16c0,1.5-0.3,1.5-1.5,1.7l-0.5,0.1l0,0.1v0.5h5.3v-0.6l-0.6-0.1c-1.3-0.2-1.5-0.2-1.5-1.7
	c0,0,0-9.8,0-10.5c0.4,0.6,8.2,12.9,8.2,12.9h1.1V3.7c0-1.5,0.2-1.5,1.3-1.9l0.2-0.1V1.2H10.6z"/>
<path fill="#DD0000" d="M28.7,6.8c-1.2,0-2.1,0.5-2.8,1.5c0-0.6,0-8.3,0-8.3l-0.2,0.1l-3.1,1.2v0.6l0.1,0C23,1.7,23,1.7,23.2,1.7
	c0.5,0,0.7,0.2,0.7,1.4v10.8c0,2.3-0.1,3.1-0.7,4.5l0,0.1l0.6,0.3c0,0,1.2-1.5,1.4-1.7c0.7,1.1,1.7,1.7,3,1.7c2.6,0,4.7-2.8,4.7-6.3
	C32.9,9.1,31.2,6.8,28.7,6.8z M28,17.6c-1.6,0-2.1-0.9-2.1-4c0,0,0-3.9,0-3.9c0.7-0.8,1.3-1.1,1.9-1.1c1.7,0,3,2.1,3,4.9
	C30.8,16,29.7,17.6,28,17.6z"/>
<path fill="#DD0000" d="M72.5,16.5L72.5,16.5c-0.4,0.5-0.6,0.6-0.7,0.6c-0.3,0-0.4-0.4-0.4-1.1v-5.2c0-1.4-0.2-2.1-1-2.7
	c-2-1.6-4.1-1.6-4.8-1.6c-2.1-0.1-7.1,2.8-8.4,6.1c0-1.9,0-1.8,0-12.7L54,1.2v0.6l0.1,0c0.2,0,0.3-0.1,0.5-0.1
	c0.4,0,0.6,0.2,0.6,1.2c0,0,0,14.6,0,14.8c-0.2,0-1.2,0.2-1.2,0.2v0.7h4.4v-0.7c0,0-1-0.1-1.2-0.2c0-2.5,0.1-3.2,1.5-5.2
	c0.2,0.3,2.6,4.9,2.7,5.2c-0.2,0-1.1,0.2-1.1,0.2v0.7h4.8c0.4,0.2,0.8,0.3,1.3,0.3c1.3,0,2.4-0.7,3.1-1.9c0.1,1.2,0.7,1.9,1.6,1.9
	c0.5,0,1.3-0.6,2-1.6l0.1-0.1L72.5,16.5z M63.3,15.7c0,0.8,0.2,1.4,0.7,2c-0.1,0-0.2,0-0.3,0C63.7,17.6,60,11,60,10.8
	c0.7-0.9,2.4-2.3,3.7-2.5c0.4,0,0.6-0.1,0.7,0c0.3,0.4,0.8,0.3,0.8,0.3c0.1,0,0.8,0.1,1.5-0.9c0,0,0-0.1,0.4-0.1
	c1.6,0,2.2,1.8,2.2,3C67,11.4,63.3,12.7,63.3,15.7z M69.3,15.8c-0.7,0.8-1.4,1.2-2.1,1.2c-1,0-1.7-0.8-1.7-2c0-2.1,2.1-2.8,3.8-3.4
	c0,0,0,0,0,0C69.3,12,69.3,15.7,69.3,15.8z"/>
<path fill="#DD0000" d="M22.6,15.2l-0.1,0.1c-0.9,1.3-1.6,1.8-2.7,1.8c-1.7,0-3.1-1.5-3.4-3.8c0.2-0.1,6.9-1.8,6.9-1.8l0-0.1
	c-0.3-2.9-1.9-4.6-4.3-4.6c-2.6,0-4.7,2.9-4.7,6.4c0,3.2,2,5.6,4.9,5.6c1.8,0,3.1-0.9,4.1-3l0-0.1L22.6,15.2z M19,7.9
	c1.1,0,1.8,0.8,1.8,2.1c0,0.6-0.2,1-1.4,1.3c0,0-2.5,0.6-3.1,0.8C16.3,9.5,17.3,7.9,19,7.9z"/>
<path fill="#DD0000" d="M51.8,11.6c-2.5-1.1-2.7-1.2-2.7-2.2c0-0.8,0.7-1.4,1.6-1.4c0,0,0.7,0,0.8,0.3c0,0.1,0.3,1.1,1.5,0.9
	c0.5-0.1,0.7-0.6,0.7-0.9c0-0.7-0.8-1.4-2-1.4c-2.5,0-4.4,1.5-4.4,3.4c0,1.8,1.5,2.5,3,3.2c1.3,0.6,2.5,1.1,2.5,2.4
	c0,1-0.9,1.8-2,1.8c-1.1,0-1.5-0.5-1.6-1.4c-0.1-0.8-0.8-1-1.3-1c-0.6,0-1.1,0.4-1.1,1.2c0,0.2,0,0.2,0,0.3
	c-0.2,0.3-0.4,0.3-0.5,0.3c-0.3,0-0.4-0.4-0.4-1.1l0-5.2c0-1.4-0.2-2.1-1-2.7c-1.2-1.1-3.6-2-5.7-1.5c-1.1,0.2-2.9,1.6-3.8,3.9
	c-0.1-1.8-0.2-2.5-0.9-3.7l0-0.1l-2.2,1.1v0.5l0.2-0.1l0.1,0c0.7,0,1,0.9,1,2.8c0,0,0,6.6,0,6.7c-0.2,0-1.2,0.2-1.2,0.2v0.6h4.5
	v-0.6c0,0-1.1-0.1-1.3-0.2c0-0.2,0-2.6,0-2.6c0.3-5.5,1.5-6.1,2-6.4c0.4-0.3,1.1-0.3,1.1-0.2c0.3,0.4,0.8,0.3,0.8,0.3
	c0.2,0,0.9,0.1,1.5-0.9c0,0,0-0.1,0.4-0.1c1.6,0,2.2,1.8,2.2,3l0,0c0,0,0,0,0,0c-2.3,0.7-6,2-6,5c0,1.8,1.3,3.1,3.1,3.1
	c1.3,0,2.4-0.7,3.1-1.9c0.1,1.2,0.7,1.9,1.6,1.9c0.4,0,1-0.4,1.6-1.1c0.6,0.7,1.8,1.1,3.3,1.1c2.3,0,4-1.6,4-3.5
	C54.6,13.7,53.6,12.4,51.8,11.6z M43.8,15.9c-0.7,0.8-1.4,1.2-2.1,1.2c-1,0-1.7-0.8-1.7-2c0-2.1,2.1-2.8,3.8-3.4c0,0,0,0,0,0
	C43.8,12.1,43.8,15.8,43.8,15.9z"/>
<path fill="#FFFFFF" d="M72.5,19.9c0,0.5,0.4,0.9,0.9,0.9s0.9-0.4,0.9-0.9c0-0.5-0.4-0.9-0.9-0.9C72.9,19,72.5,19.4,72.5,19.9"/>
<path fill="#DD0000" d="M74.5,19.9c0,0.6-0.5,1.1-1.1,1.1c-0.6,0-1.1-0.5-1.1-1.1c0-0.6,0.5-1.1,1.1-1.1
	C74,18.8,74.5,19.3,74.5,19.9 M72.5,19.9c0,0.5,0.4,0.9,0.9,0.9s0.9-0.4,0.9-0.9c0-0.5-0.4-0.9-0.9-0.9C72.9,19,72.5,19.4,72.5,19.9
	 M73,19.3h0.3c0.1,0,0.2,0,0.3,0c0.1,0,0.2,0.2,0.2,0.3c0,0.2-0.1,0.3-0.3,0.4l0.4,0.6h-0.2L73.3,20h-0.1v0.6H73V19.3z M73.3,19.8
	c0.2,0,0.3-0.1,0.3-0.2c0-0.1-0.1-0.2-0.2-0.2h-0.1h-0.1L73.3,19.8L73.3,19.8z"/>
</svg>
