<?xml version="1.0" encoding="utf-8"?>
<!-- Generator: Adobe Illustrator 27.8.1, SVG Export Plug-In . SVG Version: 6.00 Build 0)  -->
<svg version="1.1" id="Layer_1" xmlns="http://www.w3.org/2000/svg" xmlns:xlink="http://www.w3.org/1999/xlink" x="0px" y="0px"
	 viewBox="0 0 151.6 6.1" enable-background="new 0 0 151.6 6.1" xml:space="preserve">
<g>
	<path fill="#D00000" d="M3.6,0.1H2.9v0.3l0.7,0.1v2.2c0,0.4,0,0.7-0.1,0.9S3.2,4,3.1,4.1S2.7,4.2,2.4,4.2c-0.2,0-0.4,0-0.6-0.1
		C1.7,4,1.6,3.8,1.5,3.6C1.4,3.4,1.3,3.1,1.3,2.7V2.2c0-0.2,0-0.5,0-0.7c0-0.2,0-0.5,0-0.7c0-0.1,0-0.2,0-0.3L2,0.4V0.1H1.4H0.6H0
		v0.3l0.6,0.1c0,0.1,0,0.2,0,0.3c0,0.2,0,0.5,0,0.7s0,0.5,0,0.7v0.7c0,0.4,0.1,0.8,0.2,1c0.1,0.3,0.3,0.5,0.6,0.6
		c0.3,0.1,0.6,0.2,0.9,0.2c0.3,0,0.6-0.1,0.9-0.2s0.4-0.3,0.6-0.6c0.1-0.3,0.2-0.7,0.2-1.1V0.5l0.6-0.1V0.1H3.9H3.6z"/>
	<polygon fill="#D00000" points="9.9,0.1 9.2,0.1 9.2,0.4 9.9,0.5 9.9,2.2 9.9,3.4 7.6,0.1 6.4,0.1 6.4,0.4 6.9,0.5 6.9,4.2 
		6.3,4.3 6.3,4.6 6.9,4.6 7.3,4.6 8,4.6 8,4.3 7.3,4.2 7.3,2.4 7.3,0.9 9.9,4.7 10.3,4.7 10.3,0.5 10.9,0.4 10.9,0.1 10.3,0.1 	"/>
	<path fill="#D00000" d="M13.3,0.1h-0.6v0.3l0.6,0.1c0,0.1,0,0.2,0,0.3c0,0.2,0,0.5,0,0.7s0,0.5,0,0.7v0.3c0,0.2,0,0.5,0,0.7
		s0,0.5,0,0.7c0,0.1,0,0.2,0,0.3l-0.6,0.1v0.3h0.6h0.8h0.6V4.3l-0.6-0.1c0-0.1,0-0.2,0-0.3c0-0.2,0-0.5,0-0.7c0-0.2,0-0.5,0-0.7V2.2
		c0-0.2,0-0.5,0-0.7s0-0.5,0-0.7c0-0.1,0-0.2,0-0.3l0.6-0.1V0.1h-0.6H13.3z"/>
	<polygon fill="#D00000" points="19.9,0.1 19.2,0.1 19.2,0.4 19.8,0.5 18.8,3.5 18.7,3.7 17.6,0.5 18.2,0.4 18.2,0.1 17.5,0.1 
		16.6,0.1 16.3,0.1 16.3,0.4 16.8,0.5 18.3,4.6 18.8,4.6 20.2,0.5 20.7,0.4 20.7,0.1 20.3,0.1 	"/>
	<path fill="#D00000" d="M25.3,4.2h-1.6c0-0.1,0-0.2,0-0.3c0-0.2,0-0.5,0-0.7c0-0.2,0-0.5,0-0.7h0.9l0.1,0.6h0.3V1.5h-0.3l-0.1,0.6
		h-0.9c0-0.2,0-0.4,0-0.6c0-0.2,0-0.5,0-0.7c0-0.1,0-0.2,0-0.3h1.5l0.1,0.8h0.4l0-1.2h-2h-0.4h0h-0.4h-0.6v0.3l0.6,0.1
		c0,0.1,0,0.2,0,0.3c0,0.2,0,0.5,0,0.7s0,0.5,0,0.7v0.3c0,0.2,0,0.5,0,0.7s0,0.5,0,0.7c0,0.1,0,0.2,0,0.3l-0.6,0.1v0.3h0.6h0.4h0
		h0.4h2.2l0-1.2h-0.4L25.3,4.2z"/>
	<path fill="#D00000" d="M31.1,3.3C31.1,3.1,31,3,31,2.9c-0.1-0.1-0.1-0.2-0.2-0.3c-0.1-0.1-0.2-0.1-0.3-0.2c-0.1,0-0.2,0-0.4-0.1
		c0.3,0,0.5-0.1,0.7-0.2C31,2.1,31.2,2,31.3,1.8c0.1-0.2,0.2-0.3,0.2-0.5c0-0.4-0.1-0.6-0.4-0.9c-0.3-0.2-0.7-0.3-1.2-0.3h-0.6h-0.4
		h-0.1h-0.4h-0.6v0.3l0.6,0.1c0,0.1,0,0.2,0,0.3c0,0.2,0,0.5,0,0.7s0,0.5,0,0.7v0.3c0,0.2,0,0.5,0,0.7s0,0.5,0,0.7
		c0,0.1,0,0.2,0,0.3l-0.6,0.1v0.3h0.6h0.8h0.6V4.3l-0.6-0.1c0-0.1,0-0.2,0-0.3c0-0.2,0-0.5,0-0.7c0-0.2,0-0.4,0-0.7h0.4
		c0.2,0,0.3,0,0.4,0.1s0.2,0.1,0.3,0.2s0.1,0.2,0.2,0.4l0.2,1c0,0.2,0.1,0.3,0.2,0.4c0.1,0.1,0.3,0.1,0.5,0.1c0.1,0,0.1,0,0.2,0
		c0.1,0,0.1,0,0.2,0c0.1,0,0.1,0,0.2,0V4.3l-0.5-0.1L31.1,3.3z M29.6,2.2h-0.5c0-0.2,0-0.5,0-0.7c0-0.2,0-0.5,0-0.7
		c0-0.1,0-0.2,0-0.4h0.5c0.3,0,0.6,0.1,0.7,0.2c0.2,0.1,0.2,0.4,0.2,0.6c0,0.2,0,0.3-0.1,0.5c-0.1,0.1-0.2,0.2-0.3,0.3
		S29.9,2.2,29.6,2.2z"/>
	<path fill="#D00000" d="M36.2,2.4C36,2.2,35.8,2.1,35.5,2l-0.3-0.1c-0.2-0.1-0.3-0.1-0.4-0.2s-0.2-0.2-0.2-0.3
		c-0.1-0.1-0.1-0.2-0.1-0.4c0-0.1,0-0.3,0.1-0.4c0.1-0.1,0.2-0.2,0.3-0.2s0.3-0.1,0.4-0.1c0.2,0,0.4,0,0.5,0.1c0,0,0,0,0.1,0L36,1.3
		h0.5l0-0.9c-0.1-0.1-0.3-0.2-0.5-0.2C35.8,0,35.6,0,35.4,0c-0.3,0-0.6,0.1-0.8,0.2c-0.2,0.1-0.4,0.2-0.6,0.4
		c-0.1,0.2-0.2,0.4-0.2,0.7c0,0.2,0.1,0.4,0.2,0.6c0.1,0.2,0.2,0.3,0.4,0.4c0.2,0.1,0.4,0.2,0.6,0.3l0.3,0.1
		c0.2,0.1,0.3,0.1,0.4,0.2c0.1,0.1,0.2,0.2,0.3,0.2C36,3.3,36,3.4,36,3.6c0,0.2,0,0.3-0.1,0.4s-0.2,0.2-0.3,0.3
		c-0.1,0.1-0.3,0.1-0.5,0.1c-0.2,0-0.3,0-0.4,0c-0.1,0-0.2-0.1-0.3-0.1l-0.1-0.8h-0.5l0,1c0.2,0.1,0.4,0.2,0.6,0.3
		c0.2,0.1,0.5,0.1,0.8,0.1c0.3,0,0.6-0.1,0.9-0.2c0.2-0.1,0.4-0.3,0.6-0.5s0.2-0.4,0.2-0.7c0-0.2,0-0.4-0.1-0.6
		C36.5,2.7,36.4,2.5,36.2,2.4z"/>
	<path fill="#D00000" d="M39.1,0.1h-0.6v0.3l0.6,0.1c0,0.1,0,0.2,0,0.3c0,0.2,0,0.5,0,0.7s0,0.5,0,0.7v0.3c0,0.2,0,0.5,0,0.7
		s0,0.5,0,0.7c0,0.1,0,0.2,0,0.3l-0.6,0.1v0.3h0.6h0.8h0.6V4.3l-0.6-0.1c0-0.1,0-0.2,0-0.3c0-0.2,0-0.5,0-0.7c0-0.2,0-0.5,0-0.7V2.2
		c0-0.2,0-0.5,0-0.7s0-0.5,0-0.7c0-0.1,0-0.2,0-0.3l0.6-0.1V0.1h-0.6H39.1z"/>
	<path fill="#D00000" d="M44.7,0.1h-0.8h-1.5l0,1.2h0.4l0.2-0.9h1c0,0.1,0,0.2,0,0.3c0,0.2,0,0.5,0,0.7s0,0.5,0,0.7v0.3
		c0,0.2,0,0.5,0,0.7s0,0.5,0,0.7c0,0.1,0,0.2,0,0.3l-0.7,0.1v0.3h0.7h0.8h0.7V4.3l-0.7-0.1c0-0.1,0-0.2,0-0.3c0-0.2,0-0.5,0-0.7
		c0-0.2,0-0.5,0-0.7V2.2c0-0.2,0-0.5,0-0.7s0-0.5,0-0.7c0-0.1,0-0.2,0-0.3h1l0.2,0.9h0.4l0-1.2H44.7z"/>
	<path fill="#D00000" d="M51.3,0.1h-0.8v0.3l0.6,0.1l-0.9,1.9l0,0.1l-0.9-2l0.6-0.1V0.1h-0.8h-0.9h-0.3v0.3l0.5,0l1.2,2.4
		c0,0.1,0,0.2,0,0.2c0,0.2,0,0.4,0,0.5c0,0.2,0,0.3,0,0.5c0,0,0,0.1,0,0.1l-0.7,0.1v0.3h0.7h0.8H51V4.3l-0.7-0.1c0,0,0-0.1,0-0.1
		c0-0.2,0-0.3,0-0.5s0-0.3,0-0.5c0-0.1,0-0.2,0-0.3l1.1-2.3l0.6-0.1V0.1h-0.4H51.3z"/>
	<path fill="#D00000" d="M57.7,2.7c0-0.2,0-0.4-0.1-0.6c-0.1-0.2-0.2-0.3-0.4-0.4c-0.2-0.1-0.3-0.1-0.5-0.1c-0.2,0-0.4,0.1-0.6,0.2
		c-0.2,0.1-0.4,0.2-0.5,0.4c-0.2,0.2-0.3,0.4-0.4,0.6C55.1,3.1,55,3.3,55,3.6c0,0.2,0,0.4,0.1,0.6c0.1,0.2,0.2,0.3,0.4,0.4
		c0.2,0.1,0.3,0.1,0.5,0.1c0.2,0,0.4-0.1,0.6-0.2c0.2-0.1,0.4-0.2,0.5-0.4c0.1-0.2,0.3-0.4,0.3-0.6C57.7,3.2,57.7,3,57.7,2.7z
		 M57.1,3.2c0,0.2-0.1,0.3-0.1,0.5c-0.1,0.1-0.1,0.3-0.2,0.4c-0.1,0.1-0.2,0.2-0.3,0.3c-0.1,0.1-0.2,0.1-0.3,0.1
		c-0.2,0-0.3-0.1-0.4-0.2c-0.1-0.1-0.2-0.3-0.2-0.6c0-0.2,0-0.3,0-0.5c0-0.2,0.1-0.3,0.1-0.5c0.1-0.1,0.1-0.3,0.2-0.4
		c0.1-0.1,0.2-0.2,0.3-0.2c0.1-0.1,0.2-0.1,0.3-0.1c0.2,0,0.3,0.1,0.4,0.2c0.1,0.1,0.1,0.3,0.1,0.6C57.1,2.9,57.1,3.1,57.1,3.2z"/>
	<path fill="#D00000" d="M61.1,0.2c-0.1,0-0.2-0.1-0.3-0.1c-0.1,0-0.3,0-0.4,0.1c-0.1,0-0.3,0.1-0.4,0.3S59.7,0.8,59.6,1
		c-0.1,0.2-0.2,0.5-0.2,0.7l-0.6,0.1L58.8,2l0.6,0c-0.1,0.4-0.1,0.7-0.2,1.1c-0.1,0.4-0.1,0.9-0.2,1.3c0,0.2-0.1,0.4-0.1,0.5
		c0,0.1-0.1,0.3-0.1,0.4c0,0.1-0.1,0.2-0.1,0.3c0,0.1-0.1,0.2-0.1,0.2c0,0-0.1,0.1-0.1,0.1l-0.1-0.1c0-0.1-0.1-0.1-0.1-0.1
		c0,0-0.1-0.1-0.1-0.1c-0.1,0-0.1,0-0.2,0c-0.1,0-0.1,0-0.2,0.1s-0.1,0.1-0.1,0.2c0,0.1,0.1,0.1,0.1,0.2C57.8,6,57.8,6,57.9,6
		s0.2,0,0.3,0c0.1,0,0.2,0,0.2,0c0.1,0,0.2-0.1,0.2-0.1c0.1-0.1,0.2-0.1,0.2-0.2c0.1-0.1,0.2-0.2,0.3-0.3c0.1-0.1,0.1-0.3,0.2-0.5
		c0.1-0.2,0.1-0.4,0.1-0.6c0.1-0.4,0.2-0.9,0.2-1.3c0.1-0.3,0.1-0.7,0.2-1l0.7,0l0.1-0.3H60c0,0,0,0,0,0c0-0.3,0.1-0.5,0.1-0.6
		s0.1-0.3,0.2-0.4c0.1-0.1,0.1-0.2,0.2-0.2c0,0,0.1,0,0.1,0l0.1,0.1c0.1,0.1,0.2,0.2,0.2,0.2c0.1,0.1,0.1,0.1,0.2,0.1
		c0.1,0,0.1,0,0.2-0.1c0.1,0,0.1-0.1,0.1-0.2c0-0.1-0.1-0.1-0.1-0.2C61.3,0.3,61.2,0.2,61.1,0.2z"/>
	<polygon fill="#D00000" points="68.1,0.1 67.4,0.1 67.4,0.4 68.1,0.5 68.1,2.2 68.1,3.4 65.8,0.1 64.6,0.1 64.6,0.4 65.1,0.5 
		65.1,4.2 64.5,4.3 64.5,4.6 65.1,4.6 65.5,4.6 66.2,4.6 66.2,4.3 65.5,4.2 65.5,2.4 65.5,0.9 68.1,4.7 68.5,4.7 68.5,0.5 69.1,0.4 
		69.1,0.1 68.5,0.1 	"/>
	<path fill="#D00000" d="M74,4.2h-1.6c0-0.1,0-0.2,0-0.3c0-0.2,0-0.5,0-0.7c0-0.2,0-0.5,0-0.7h0.9l0.1,0.6h0.3V1.5h-0.3l-0.1,0.6
		h-0.9c0-0.2,0-0.4,0-0.6c0-0.2,0-0.5,0-0.7c0-0.1,0-0.2,0-0.3h1.5L74,1.3h0.4l0-1.2h-2h-0.4h0h-0.4h-0.6v0.3l0.6,0.1
		c0,0.1,0,0.2,0,0.3c0,0.2,0,0.5,0,0.7s0,0.5,0,0.7v0.3c0,0.2,0,0.5,0,0.7s0,0.5,0,0.7c0,0.1,0,0.2,0,0.3l-0.6,0.1v0.3h0.6h0.4h0
		h0.4h2.2l0-1.2h-0.4L74,4.2z"/>
	<path fill="#D00000" d="M79.5,2.4c-0.2-0.1-0.5-0.1-0.8-0.2c0.3,0,0.5-0.1,0.7-0.2c0.2-0.1,0.3-0.2,0.4-0.4
		c0.1-0.2,0.1-0.3,0.1-0.5c0-0.2-0.1-0.4-0.2-0.6s-0.3-0.3-0.5-0.4c-0.2-0.1-0.5-0.1-0.8-0.1h-0.6h-0.4h-0.1H77h-0.6v0.3L77,0.5
		c0,0.1,0,0.2,0,0.3c0,0.2,0,0.5,0,0.7c0,0.2,0,0.5,0,0.7v0.3c0,0.2,0,0.5,0,0.7c0,0.2,0,0.5,0,0.7c0,0.1,0,0.2,0,0.3l-0.6,0.1v0.3
		H77h0.4h0.1h0.4h0.5c0.3,0,0.6,0,0.9-0.1s0.4-0.2,0.6-0.3C79.9,4.1,80,4,80.1,3.8s0.1-0.3,0.1-0.5c0-0.2-0.1-0.4-0.2-0.6
		C79.9,2.7,79.7,2.5,79.5,2.4z M78.2,0.5c0.2,0,0.4,0,0.5,0.1c0.1,0.1,0.3,0.1,0.3,0.3s0.1,0.3,0.1,0.5s0,0.4-0.1,0.5
		C79,1.9,78.9,2,78.7,2c-0.2,0.1-0.4,0.1-0.6,0.1h-0.3c0-0.2,0-0.4,0-0.6c0-0.2,0-0.5,0-0.7c0-0.1,0-0.2,0-0.3H78.2z M79.1,4
		c-0.2,0.2-0.5,0.2-0.9,0.2h-0.4c0-0.1,0-0.2,0-0.4c0-0.2,0-0.5,0-0.7c0-0.2,0-0.5,0-0.7h0.4c0.4,0,0.8,0.1,1,0.2
		c0.2,0.2,0.3,0.4,0.3,0.7C79.4,3.7,79.3,3.9,79.1,4z"/>
	<path fill="#D00000" d="M85.3,3.3c0-0.2-0.1-0.3-0.2-0.4c-0.1-0.1-0.1-0.2-0.2-0.3s-0.2-0.1-0.3-0.2c-0.1,0-0.2,0-0.4-0.1
		c0.3,0,0.5-0.1,0.7-0.2c0.2-0.1,0.4-0.2,0.5-0.4s0.2-0.3,0.2-0.5c0-0.4-0.1-0.6-0.4-0.9c-0.3-0.2-0.7-0.3-1.2-0.3h-0.6h-0.4h-0.1
		h-0.4h-0.6v0.3l0.6,0.1c0,0.1,0,0.2,0,0.3c0,0.2,0,0.5,0,0.7s0,0.5,0,0.7v0.3c0,0.2,0,0.5,0,0.7s0,0.5,0,0.7c0,0.1,0,0.2,0,0.3
		l-0.6,0.1v0.3h0.6h0.8h0.6V4.3l-0.6-0.1c0-0.1,0-0.2,0-0.3c0-0.2,0-0.5,0-0.7c0-0.2,0-0.4,0-0.7h0.4c0.2,0,0.3,0,0.4,0.1
		c0.1,0,0.2,0.1,0.3,0.2c0.1,0.1,0.1,0.2,0.2,0.4l0.2,1c0,0.2,0.1,0.3,0.2,0.4c0.1,0.1,0.3,0.1,0.5,0.1c0.1,0,0.1,0,0.2,0
		s0.1,0,0.2,0c0.1,0,0.1,0,0.2,0V4.3l-0.5-0.1L85.3,3.3z M83.8,2.2h-0.5c0-0.2,0-0.5,0-0.7c0-0.2,0-0.5,0-0.7c0-0.1,0-0.2,0-0.4h0.5
		c0.3,0,0.6,0.1,0.7,0.2c0.2,0.1,0.2,0.4,0.2,0.6c0,0.2,0,0.3-0.1,0.5S84.5,2,84.3,2.1S84,2.2,83.8,2.2z"/>
	<path fill="#D00000" d="M90,0.1h-0.5L88,4.2l-0.6,0.1v0.3h0.4h0.4H89V4.3l-0.6-0.1l0.3-1h1.6l0.3,1L90,4.3v0.3h0.8h0.8h0.4V4.3
		l-0.5-0.1L90,0.1z M88.8,2.8L89.5,1l0-0.1l0.7,2H88.8z"/>
	<path fill="#D00000" d="M96,2.4c-0.2-0.1-0.4-0.3-0.7-0.4L95,1.9c-0.2-0.1-0.3-0.1-0.4-0.2c-0.1-0.1-0.2-0.2-0.2-0.3
		c-0.1-0.1-0.1-0.2-0.1-0.4c0-0.1,0-0.3,0.1-0.4c0.1-0.1,0.2-0.2,0.3-0.2s0.3-0.1,0.4-0.1c0.2,0,0.3,0,0.5,0.1c0,0,0,0,0.1,0
		l0.1,0.8h0.5l0-0.9c-0.1-0.1-0.3-0.2-0.5-0.2C95.6,0,95.4,0,95.1,0c-0.3,0-0.6,0.1-0.8,0.2c-0.2,0.1-0.4,0.2-0.6,0.4
		S93.6,1,93.6,1.3c0,0.2,0.1,0.4,0.2,0.6c0.1,0.2,0.2,0.3,0.4,0.4c0.2,0.1,0.4,0.2,0.6,0.3L95,2.8c0.2,0.1,0.3,0.1,0.4,0.2
		c0.1,0.1,0.2,0.2,0.3,0.2s0.1,0.2,0.1,0.4c0,0.2,0,0.3-0.1,0.4c-0.1,0.1-0.2,0.2-0.3,0.3c-0.1,0.1-0.3,0.1-0.5,0.1
		c-0.2,0-0.3,0-0.4,0c-0.1,0-0.2-0.1-0.3-0.1L94,3.4h-0.5l0,1c0.2,0.1,0.4,0.2,0.6,0.3c0.2,0.1,0.5,0.1,0.8,0.1
		c0.3,0,0.6-0.1,0.9-0.2c0.2-0.1,0.4-0.3,0.6-0.5c0.1-0.2,0.2-0.4,0.2-0.7c0-0.2,0-0.4-0.1-0.6C96.3,2.7,96.1,2.5,96,2.4z"/>
	<path fill="#D00000" d="M100.7,1.8l1.1-1.3l0.6-0.1V0.1h-0.3h-0.5h-0.8v0.3l0.5,0.1l-1.7,2.1V2.2c0-0.2,0-0.5,0-0.7s0-0.5,0-0.7
		c0-0.1,0-0.2,0-0.3l0.6-0.1V0.1h-0.6h-0.8h-0.6v0.3l0.6,0.1c0,0.1,0,0.2,0,0.3c0,0.2,0,0.5,0,0.7s0,0.5,0,0.7v0.3
		c0,0.2,0,0.5,0,0.7s0,0.5,0,0.7c0,0.1,0,0.2,0,0.3l-0.6,0.1v0.3h0.6h0.8h0.6V4.3l-0.6-0.1c0-0.1,0-0.2,0-0.3c0-0.2,0-0.4,0-0.7
		c0-0.1,0-0.1,0-0.2l0.6-0.7l1,1.9l-0.5,0v0.3h0.7h0.8h0.3V4.3l-0.5,0L100.7,1.8z"/>
	<path fill="#D00000" d="M106.6,0.1H106l-1.4,4.1L104,4.3v0.3h0.4h0.4h0.8V4.3L105,4.2l0.3-1h1.6l0.3,1l-0.6,0.1v0.3h0.8h0.8h0.4
		V4.3L108,4.2L106.6,0.1z M105.4,2.8L106,1l0-0.1l0.7,2H105.4z"/>
	<rect x="110" y="2.7" fill="#D00000" width="3" height="0.5"/>
	<path fill="#D00000" d="M117.6,4.2h-1.5c0-0.1,0-0.2,0-0.3c0-0.2,0-0.5,0-0.7c0-0.2,0-0.4,0-0.6V2.2c0-0.2,0-0.5,0-0.7
		c0-0.2,0-0.5,0-0.7c0-0.1,0-0.2,0-0.3l0.6-0.1V0.1h-0.6h-0.8h-0.6v0.3l0.6,0.1c0,0.1,0,0.2,0,0.3c0,0.2,0,0.5,0,0.7s0,0.5,0,0.7
		v0.4c0,0.2,0,0.4,0,0.7s0,0.5,0,0.7c0,0.1,0,0.2,0,0.3l-0.6,0.1v0.3h0.6h0.4h0h0.4h2.1l0.1-1.3h-0.4L117.6,4.2z"/>
	<path fill="#D00000" d="M120.7,0.1h-0.6v0.3l0.6,0.1c0,0.1,0,0.2,0,0.3c0,0.2,0,0.5,0,0.7s0,0.5,0,0.7v0.3c0,0.2,0,0.5,0,0.7
		s0,0.5,0,0.7c0,0.1,0,0.2,0,0.3l-0.6,0.1v0.3h0.6h0.8h0.6V4.3l-0.6-0.1c0-0.1,0-0.2,0-0.3c0-0.2,0-0.5,0-0.7c0-0.2,0-0.5,0-0.7V2.2
		c0-0.2,0-0.5,0-0.7s0-0.5,0-0.7c0-0.1,0-0.2,0-0.3l0.6-0.1V0.1h-0.6H120.7z"/>
	<polygon fill="#D00000" points="127.5,0.1 126.8,0.1 126.8,0.4 127.5,0.5 127.5,2.2 127.5,3.4 125.2,0.1 124,0.1 124,0.4 
		124.5,0.5 124.5,4.2 124,4.3 124,4.6 124.5,4.6 124.9,4.6 125.7,4.6 125.7,4.3 124.9,4.2 124.9,2.4 124.9,0.9 127.5,4.7 127.9,4.7 
		127.9,0.5 128.5,0.4 128.5,0.1 127.9,0.1 	"/>
	<path fill="#D00000" d="M133.4,4.2c-0.1,0-0.1,0.1-0.2,0.1c-0.2,0.1-0.4,0.1-0.6,0.1c-0.3,0-0.6-0.1-0.8-0.2
		c-0.2-0.1-0.4-0.4-0.6-0.7c-0.1-0.3-0.2-0.7-0.2-1.1c0-0.4,0.1-0.8,0.2-1.1c0.1-0.3,0.3-0.5,0.6-0.7c0.2-0.2,0.5-0.2,0.8-0.2
		c0.2,0,0.4,0,0.5,0.1c0,0,0.1,0,0.1,0.1l0.1,0.8h0.4l0-1c-0.2-0.1-0.4-0.2-0.7-0.2S132.8,0,132.5,0c-0.3,0-0.6,0.1-0.9,0.2
		c-0.3,0.1-0.5,0.3-0.7,0.5s-0.4,0.5-0.5,0.7c-0.1,0.3-0.2,0.6-0.2,1c0,0.4,0.1,0.7,0.2,1c0.1,0.3,0.3,0.5,0.5,0.7
		c0.2,0.2,0.5,0.4,0.7,0.5c0.3,0.1,0.6,0.2,0.9,0.2c0.3,0,0.5,0,0.8-0.1c0.2-0.1,0.4-0.1,0.6-0.2l0-1h-0.4L133.4,4.2z"/>
	<path fill="#D00000" d="M139.4,0.6c-0.2-0.2-0.4-0.4-0.7-0.5c-0.3-0.1-0.5-0.2-0.8-0.2s-0.5,0.1-0.8,0.2c-0.3,0.1-0.5,0.3-0.7,0.5
		c-0.2,0.2-0.4,0.4-0.5,0.7c-0.1,0.3-0.2,0.6-0.2,1c0,0.4,0.1,0.7,0.2,1c0.1,0.3,0.3,0.5,0.5,0.7c0.2,0.2,0.4,0.3,0.7,0.4
		c0.3,0.1,0.5,0.2,0.8,0.2s0.5-0.1,0.8-0.2c0.3-0.1,0.5-0.3,0.7-0.5c0.2-0.2,0.4-0.5,0.5-0.7c0.1-0.3,0.2-0.6,0.2-1
		c0-0.4-0.1-0.7-0.2-1S139.6,0.8,139.4,0.6z M139.1,3.1c0,0.2-0.1,0.5-0.2,0.6c-0.1,0.2-0.2,0.3-0.4,0.4c-0.2,0.1-0.4,0.2-0.6,0.2
		c-0.2,0-0.4-0.1-0.6-0.2c-0.2-0.1-0.3-0.3-0.4-0.4s-0.2-0.4-0.2-0.6c0-0.2-0.1-0.5-0.1-0.8c0-0.3,0-0.5,0.1-0.7s0.1-0.5,0.2-0.6
		s0.2-0.3,0.4-0.4c0.2-0.1,0.4-0.2,0.6-0.2c0.2,0,0.4,0.1,0.6,0.2c0.2,0.1,0.3,0.3,0.4,0.4c0.1,0.2,0.2,0.4,0.2,0.6
		c0,0.2,0.1,0.5,0.1,0.7C139.2,2.6,139.2,2.9,139.1,3.1z"/>
	<path fill="#D00000" d="M144.6,4.2h-1.5c0-0.1,0-0.2,0-0.3c0-0.2,0-0.5,0-0.7c0-0.2,0-0.4,0-0.6V2.2c0-0.2,0-0.5,0-0.7
		c0-0.2,0-0.5,0-0.7c0-0.1,0-0.2,0-0.3l0.6-0.1V0.1h-0.6h-0.8h-0.6v0.3l0.6,0.1c0,0.1,0,0.2,0,0.3c0,0.2,0,0.5,0,0.7s0,0.5,0,0.7
		v0.4c0,0.2,0,0.4,0,0.7s0,0.5,0,0.7c0,0.1,0,0.2,0,0.3l-0.6,0.1v0.3h0.6h0.4h0h0.4h2.1l0.1-1.3h-0.4L144.6,4.2z"/>
	<polygon fill="#D00000" points="151.6,0.1 151,0.1 150.7,0.1 149.9,0.1 149.9,0.4 150.7,0.5 150.7,2.2 150.7,3.4 148.4,0.1 
		147.1,0.1 147.1,0.4 147.7,0.5 147.7,4.2 147.1,4.3 147.1,4.6 147.7,4.6 148.1,4.6 148.8,4.6 148.8,4.3 148.1,4.2 148.1,2.4 
		148.1,0.9 150.7,4.7 151,4.7 151,0.5 151.6,0.4 	"/>
</g>
</svg>
